<svg height="512pt" viewBox="0 0 512 512" width="512pt" xmlns="http://www.w3.org/2000/svg"><path d="m416 136c0 5.523438-4.476562 10-10 10s-10-4.476562-10-10 4.476562-10 10-10 10 4.476562 10 10zm0 0" fill="#deb06f"/><path d="m266 136c0 5.523438-4.476562 10-10 10s-10-4.476562-10-10 4.476562-10 10-10 10 4.476562 10 10zm0 0" fill="#deb06f"/><path d="m116 136c0 5.523438-4.476562 10-10 10s-10-4.476562-10-10 4.476562-10 10-10 10 4.476562 10 10zm0 0" fill="#deb06f"/><path d="m502 126h-36v-56c0-2.339844-.820312-4.605469-2.316406-6.402344l-50-60c-1.902344-2.28125-4.714844-3.597656-7.683594-3.597656s-5.78125 1.316406-7.683594 3.597656l-50 60c-1.496094 1.796875-2.316406 4.0625-2.316406 6.402344v56h-30v-56c0-2.339844-.820312-4.605469-2.316406-6.402344l-50-60c-1.902344-2.28125-4.714844-3.597656-7.683594-3.597656s-5.78125 1.316406-7.683594 3.597656l-50 60c-1.496094 1.796875-2.316406 4.0625-2.316406 6.402344v56h-30v-56c0-2.339844-.820312-4.605469-2.316406-6.402344l-50-60c-1.902344-2.28125-4.714844-3.597656-7.683594-3.597656s-5.78125 1.316406-7.683594 3.597656l-50 60c-1.496094 1.796875-2.316406 4.0625-2.316406 6.402344v56h-36c-5.523438 0-10 4.476562-10 10v60c0 5.523438 4.476562 10 10 10h36v146h-36c-5.523438 0-10 4.476562-10 10v60c0 5.523438 4.476562 10 10 10h36v60h-36c-5.523438 0-10 4.476562-10 10s4.476562 10 10 10h492c5.523438 0 10-4.476562 10-10s-4.476562-10-10-10h-36v-60h36c5.523438 0 10-4.476562 10-10v-60c0-5.523438-4.476562-10-10-10h-36v-146h36c5.523438 0 10-4.476562 10-10v-60c0-5.523438-4.476562-10-10-10zm-186 246h30v40h-30zm30-20h-30v-146h30zm-30 80h30v60h-30zm30-286v40h-30v-40zm-130-72.378906 40-48 40 48v418.378906h-80zm-50 298.378906h30v40h-30zm30-20h-30v-146h30zm-30 80h30v60h-30zm30-286v40h-30v-40zm-176 40v-40h26v40zm0 226v-40h26v40zm46-338.378906 40-48 40 48v418.378906h-80zm300 418.378906v-418.378906l40-48 40 48v418.378906zm126-120v40h-26v-40zm0-186h-26v-40h26zm0 0" fill="#deb06f"/><path d="m406 166c-5.523438 0-10 4.476562-10 10v226c0 5.523438 4.476562 10 10 10s10-4.476562 10-10v-226c0-5.523438-4.476562-10-10-10zm0 0" fill="#deb06f"/><path d="m256 412c5.523438 0 10-4.476562 10-10v-226c0-5.523438-4.476562-10-10-10s-10 4.476562-10 10v226c0 5.523438 4.476562 10 10 10zm0 0" fill="#deb06f"/><path d="m106 166c-5.523438 0-10 4.476562-10 10v226c0 5.523438 4.476562 10 10 10s10-4.476562 10-10v-226c0-5.523438-4.476562-10-10-10zm0 0" fill="#deb06f"/></svg>