<svg xmlns="http://www.w3.org/2000/svg" height="512pt" version="1.1" viewBox="0 -42 512.00004 512" width="512pt"><g id="surface1"><path d="M 77.910156 63.5 C 84.1875 62.152344 90.640625 64.054688 95.171875 68.585938 C 102.5 75.914062 102.5 87.839844 95.171875 95.171875 C 87.839844 102.5 75.914062 102.5 68.585938 95.171875 C 64.597656 91.183594 62.621094 85.675781 63.167969 80.054688 C 63.53125 76.292969 61.046875 72.921875 57.476562 72.054688 C 57.136719 71.972656 56.785156 71.902344 56.425781 71.867188 C 52.304688 71.480469 48.636719 74.488281 48.238281 78.609375 C 47.585938 85.363281 48.96875 92.027344 52.09375 97.84375 C 53.640625 100.726562 55.605469 103.402344 57.980469 105.777344 C 58.824219 106.621094 59.707031 107.410156 60.613281 108.148438 C 66.789062 113.152344 74.332031 115.660156 81.875 115.660156 C 90.53125 115.660156 99.1875 112.363281 105.773438 105.777344 C 118.949219 92.597656 118.949219 71.160156 105.773438 57.980469 C 97.628906 49.835938 86.035156 46.417969 74.761719 48.835938 C 70.714844 49.707031 68.132812 53.691406 69.003906 57.742188 C 69.082031 58.101562 69.1875 58.441406 69.3125 58.777344 C 70.585938 62.214844 74.214844 64.292969 77.910156 63.5 Z M 77.910156 63.5 " style=" stroke:none;fill-rule:nonzero;fill-opacity:1;" fill="#deb06f" /><path d="M 279.898438 105.773438 C 293.074219 92.597656 293.074219 71.15625 279.898438 57.980469 C 273.515625 51.597656 265.027344 48.082031 256 48.082031 C 246.972656 48.082031 238.488281 51.597656 232.105469 57.980469 C 218.925781 71.15625 218.925781 92.597656 232.105469 105.773438 C 238.691406 112.363281 247.347656 115.65625 256 115.65625 C 264.65625 115.65625 273.308594 112.363281 279.898438 105.773438 Z M 242.707031 95.171875 C 235.378906 87.839844 235.378906 75.914062 242.707031 68.585938 C 246.257812 65.035156 250.980469 63.078125 256 63.078125 C 261.023438 63.078125 265.742188 65.035156 269.292969 68.585938 C 276.621094 75.914062 276.621094 87.839844 269.292969 95.171875 C 261.964844 102.5 250.035156 102.5 242.707031 95.171875 Z M 242.707031 95.171875 " style=" stroke:none;fill-rule:nonzero;fill-opacity:1;" fill="#deb06f" /><path d="M 406.226562 57.980469 C 393.050781 71.15625 393.050781 92.597656 406.226562 105.777344 C 412.816406 112.363281 421.46875 115.65625 430.125 115.65625 C 438.777344 115.65625 447.433594 112.363281 454.019531 105.777344 C 467.199219 92.597656 467.199219 71.15625 454.019531 57.980469 C 440.84375 44.804688 419.40625 44.804688 406.226562 57.980469 Z M 416.832031 95.171875 C 409.503906 87.839844 409.503906 75.914062 416.832031 68.585938 C 424.164062 61.257812 436.089844 61.253906 443.417969 68.585938 C 450.746094 75.914062 450.746094 87.839844 443.417969 95.171875 C 436.089844 102.5 424.160156 102.5 416.832031 95.171875 Z M 416.832031 95.171875 " style=" stroke:none;fill-rule:nonzero;fill-opacity:1;" fill="#deb06f" /><path d="M 512 81.878906 C 512 73.132812 505.714844 62.898438 488.882812 57.535156 C 496.988281 41.847656 494.195312 30.167969 488.015625 23.988281 C 481.832031 17.804688 470.15625 15.015625 454.46875 23.117188 C 449.105469 6.285156 438.871094 0 430.125 0 C 421.378906 0 411.144531 6.285156 405.78125 23.117188 C 390.089844 15.015625 378.414062 17.804688 372.234375 23.988281 C 366.050781 30.167969 363.257812 41.84375 371.367188 57.535156 C 354.53125 62.898438 348.246094 73.132812 348.246094 81.878906 C 348.246094 90.625 354.53125 100.859375 371.367188 106.21875 C 363.257812 121.910156 366.050781 133.585938 372.234375 139.765625 C 378.414062 145.949219 390.09375 148.742188 405.78125 140.636719 C 409.652344 152.792969 416.066406 159.445312 422.625 162.203125 L 422.625 189.15625 C 421.914062 188.34375 421.175781 187.542969 420.398438 186.765625 C 406.515625 172.882812 386.230469 170.023438 375.375 169.554688 C 371.925781 169.410156 368.539062 170.722656 366.09375 173.167969 C 363.648438 175.613281 362.332031 178.996094 362.480469 182.449219 C 362.953125 193.304688 365.8125 213.589844 379.691406 227.472656 C 392.726562 240.503906 411.40625 243.824219 422.625 244.570312 L 422.625 283.582031 L 263.5 283.582031 L 263.5 267.4375 C 274.71875 266.691406 293.398438 263.375 306.429688 250.339844 C 320.3125 236.460938 323.171875 216.171875 323.640625 205.320312 C 323.789062 201.867188 322.476562 198.480469 320.03125 196.035156 C 317.585938 193.589844 314.195312 192.285156 310.746094 192.421875 C 299.890625 192.890625 279.605469 195.753906 265.722656 209.632812 C 264.945312 210.410156 264.207031 211.210938 263.5 212.027344 L 263.5 162.203125 C 270.058594 159.445312 276.46875 152.792969 280.34375 140.636719 C 296.035156 148.742188 307.710938 145.949219 313.890625 139.765625 C 320.074219 133.585938 322.863281 121.910156 314.757812 106.21875 C 331.59375 100.859375 337.875 90.625 337.875 81.878906 C 337.875 73.132812 331.59375 62.898438 314.757812 57.535156 C 322.863281 41.847656 320.074219 30.167969 313.890625 23.988281 C 307.710938 17.804688 296.03125 15.015625 280.34375 23.117188 C 274.980469 6.285156 264.746094 0 256 0 C 247.253906 0 237.019531 6.285156 231.65625 23.117188 C 215.96875 15.015625 204.289062 17.804688 198.109375 23.988281 C 191.925781 30.167969 189.136719 41.84375 197.242188 57.535156 C 180.40625 62.898438 174.121094 73.132812 174.121094 81.878906 C 174.121094 90.625 180.40625 100.859375 197.242188 106.21875 C 189.136719 121.910156 191.925781 133.585938 198.109375 139.765625 C 204.289062 145.945312 215.96875 148.742188 231.65625 140.632812 C 235.53125 152.789062 241.941406 159.445312 248.5 162.203125 L 248.5 189.15625 C 247.792969 188.34375 247.054688 187.542969 246.273438 186.761719 C 232.394531 172.882812 212.109375 170.023438 201.25 169.554688 C 197.800781 169.414062 194.414062 170.71875 191.96875 173.164062 C 189.523438 175.609375 188.207031 178.996094 188.355469 182.449219 C 188.824219 193.304688 191.6875 213.589844 205.566406 227.472656 C 218.601562 240.503906 237.28125 243.820312 248.5 244.566406 L 248.5 283.578125 L 89.375 283.578125 L 89.375 267.4375 C 100.59375 266.691406 119.273438 263.375 132.308594 250.339844 C 146.1875 236.460938 149.050781 216.175781 149.519531 205.316406 C 149.667969 201.863281 148.351562 198.480469 145.90625 196.035156 C 143.460938 193.589844 140.078125 192.277344 136.625 192.421875 C 125.765625 192.890625 105.480469 195.753906 91.601562 209.632812 C 90.824219 210.410156 90.085938 211.210938 89.375 212.027344 L 89.375 162.203125 C 95.933594 159.445312 102.347656 152.789062 106.21875 140.632812 C 121.910156 148.738281 133.585938 145.949219 139.765625 139.765625 C 145.949219 133.585938 148.742188 121.910156 140.632812 106.21875 C 157.46875 100.859375 163.753906 90.625 163.753906 81.878906 C 163.753906 73.132812 157.46875 62.898438 140.632812 57.535156 C 148.738281 41.847656 145.949219 30.167969 139.765625 23.988281 C 133.585938 17.804688 121.910156 15.015625 106.21875 23.117188 C 100.859375 6.285156 90.625 0 81.878906 0 C 81.875 0 81.878906 0 81.878906 0 C 73.132812 0 62.898438 6.285156 57.535156 23.117188 C 41.847656 15.015625 30.167969 17.804688 23.988281 23.988281 C 17.804688 30.167969 15.015625 41.84375 23.117188 57.535156 C 6.285156 62.898438 0 73.132812 0 81.878906 C 0 90.625 6.285156 100.859375 23.117188 106.21875 C 15.015625 121.910156 17.804688 133.585938 23.988281 139.769531 C 30.167969 145.949219 41.84375 148.742188 57.535156 140.636719 C 61.40625 152.792969 67.820312 159.445312 74.378906 162.207031 L 74.378906 189.15625 C 73.667969 188.34375 72.929688 187.542969 72.152344 186.765625 C 58.269531 172.882812 37.984375 170.023438 27.128906 169.554688 C 23.671875 169.414062 20.292969 170.722656 17.847656 173.167969 C 15.402344 175.609375 14.085938 178.996094 14.234375 182.449219 C 14.703125 193.304688 17.566406 213.589844 31.445312 227.472656 C 44.480469 240.503906 63.160156 243.824219 74.378906 244.570312 L 74.378906 283.582031 L 8.042969 283.582031 C 5.660156 283.582031 3.421875 284.710938 2.007812 286.625 C 0.597656 288.539062 0.175781 291.007812 0.875 293.285156 L 40.972656 423.542969 C 41.941406 426.691406 44.847656 428.835938 48.140625 428.835938 L 463.859375 428.835938 C 467.152344 428.835938 470.058594 426.691406 471.027344 423.542969 L 477.804688 401.519531 C 479.023438 397.5625 476.804688 393.363281 472.847656 392.144531 C 468.886719 390.929688 464.691406 393.148438 463.472656 397.105469 L 458.324219 413.839844 L 53.675781 413.839844 L 33.773438 349.1875 L 478.226562 349.1875 L 472.328125 368.34375 C 471.109375 372.304688 473.332031 376.5 477.289062 377.71875 C 481.246094 378.933594 485.445312 376.71875 486.664062 372.757812 L 511.125 293.285156 C 511.824219 291.011719 511.40625 288.539062 509.992188 286.625 C 508.578125 284.710938 506.339844 283.582031 503.960938 283.582031 L 437.621094 283.582031 L 437.621094 267.4375 C 448.84375 266.691406 467.523438 263.375 480.554688 250.34375 C 494.433594 236.464844 497.296875 216.175781 497.765625 205.316406 C 497.914062 201.863281 496.597656 198.480469 494.152344 196.035156 C 491.710938 193.589844 488.320312 192.285156 484.871094 192.425781 C 474.015625 192.894531 453.730469 195.753906 439.847656 209.636719 C 439.070312 210.414062 438.332031 211.214844 437.621094 212.027344 L 437.621094 162.207031 C 444.183594 159.445312 450.59375 152.792969 454.46875 140.636719 C 470.15625 148.742188 481.832031 145.949219 488.015625 139.769531 C 494.199219 133.585938 496.988281 121.910156 488.882812 106.21875 C 505.714844 100.859375 512 90.625 512 81.878906 Z M 308.472656 207.59375 C 307.785156 215.722656 305.226562 230.335938 295.828125 239.738281 C 286.429688 249.132812 271.8125 251.695312 263.683594 252.378906 C 264.371094 244.25 266.933594 229.632812 276.328125 220.238281 C 285.726562 210.839844 300.34375 208.277344 308.472656 207.59375 Z M 239.457031 121.8125 C 238.53125 121.429688 237.558594 121.242188 236.585938 121.242188 C 235.023438 121.242188 233.472656 121.730469 232.171875 122.679688 C 219.554688 131.878906 211.089844 131.539062 208.714844 129.164062 C 204.242188 124.691406 210.316406 112.402344 215.199219 105.707031 C 216.738281 103.597656 217.066406 100.835938 216.066406 98.421875 C 215.066406 96.007812 212.878906 94.289062 210.296875 93.882812 C 194.871094 91.464844 189.121094 85.238281 189.121094 81.875 C 189.121094 75.546875 202.113281 71.152344 210.296875 69.871094 C 212.882812 69.464844 215.066406 67.746094 216.066406 65.332031 C 217.066406 62.917969 216.738281 60.15625 215.199219 58.042969 C 206.003906 45.429688 206.339844 36.964844 208.714844 34.589844 C 213.1875 30.117188 225.476562 36.195312 232.171875 41.074219 C 234.28125 42.613281 237.042969 42.941406 239.457031 41.941406 C 241.871094 40.941406 243.589844 38.753906 243.996094 36.175781 C 246.410156 20.746094 252.640625 14.996094 256.003906 14.996094 C 262.332031 14.996094 266.726562 27.988281 268.007812 36.175781 C 268.414062 38.753906 270.132812 40.941406 272.546875 41.941406 C 274.960938 42.941406 277.722656 42.609375 279.832031 41.074219 C 292.445312 31.878906 300.914062 32.21875 303.289062 34.589844 C 307.761719 39.0625 301.683594 51.351562 296.804688 58.042969 C 295.265625 60.15625 294.9375 62.917969 295.9375 65.332031 C 296.9375 67.746094 299.121094 69.464844 301.707031 69.871094 C 317.132812 72.285156 322.882812 78.515625 322.882812 81.875 C 322.882812 88.207031 309.894531 92.601562 301.707031 93.882812 C 299.121094 94.289062 296.9375 96.007812 295.9375 98.421875 C 294.9375 100.835938 295.265625 103.597656 296.804688 105.707031 C 306 118.324219 305.660156 126.789062 303.289062 129.164062 C 298.8125 133.636719 286.527344 127.558594 279.832031 122.679688 C 277.722656 121.140625 274.960938 120.808594 272.546875 121.8125 C 270.132812 122.8125 268.414062 124.996094 268.007812 127.578125 C 265.59375 143.007812 259.363281 148.757812 256.003906 148.757812 C 249.671875 148.757812 245.277344 135.765625 243.996094 127.578125 C 243.589844 125 241.871094 122.8125 239.457031 121.8125 Z M 216.171875 216.867188 C 206.773438 207.46875 204.214844 192.855469 203.527344 184.726562 C 211.660156 185.410156 226.273438 187.972656 235.671875 197.371094 C 245.074219 206.769531 247.632812 221.386719 248.316406 229.511719 C 240.1875 228.828125 225.570312 226.265625 216.171875 216.867188 Z M 29.40625 184.726562 C 35.234375 185.214844 44.394531 186.6875 52.582031 190.941406 C 55.808594 192.617188 58.890625 194.710938 61.546875 197.371094 C 70.375 206.199219 73.171875 219.628906 74.046875 227.964844 C 74.101562 228.503906 74.148438 229.019531 74.191406 229.511719 C 66.0625 228.828125 51.445312 226.265625 42.050781 216.871094 C 32.652344 207.46875 30.089844 192.855469 29.40625 184.726562 Z M 134.347656 207.59375 C 133.664062 215.722656 131.101562 230.339844 121.703125 239.738281 C 112.304688 249.132812 97.6875 251.695312 89.558594 252.378906 C 90.246094 244.25 92.804688 229.636719 102.207031 220.238281 C 111.601562 210.839844 126.21875 208.277344 134.347656 207.59375 Z M 65.332031 121.8125 C 64.410156 121.429688 63.433594 121.242188 62.460938 121.242188 C 60.898438 121.242188 59.347656 121.730469 58.042969 122.679688 C 57.222656 123.277344 56.421875 123.832031 55.636719 124.351562 C 44.355469 131.820312 36.808594 131.382812 34.589844 129.164062 C 30.117188 124.691406 36.195312 112.402344 41.074219 105.710938 C 42.613281 103.597656 42.941406 100.835938 41.941406 98.421875 C 40.9375 96.007812 38.753906 94.289062 36.171875 93.882812 C 20.746094 91.46875 14.996094 85.238281 14.996094 81.878906 C 14.996094 75.546875 27.988281 71.152344 36.175781 69.871094 C 38.757812 69.46875 40.941406 67.746094 41.941406 65.332031 C 42.941406 62.917969 42.613281 60.160156 41.074219 58.046875 C 31.878906 45.429688 32.21875 36.964844 34.589844 34.589844 C 38.570312 30.613281 48.730469 34.984375 55.640625 39.433594 C 56.496094 39.984375 57.308594 40.535156 58.046875 41.074219 C 60.15625 42.613281 62.917969 42.945312 65.332031 41.941406 C 67.746094 40.941406 69.46875 38.757812 69.871094 36.175781 C 72.289062 20.746094 78.519531 14.996094 81.878906 14.996094 C 88.207031 14.996094 92.601562 27.988281 93.882812 36.175781 C 94.289062 38.757812 96.007812 40.941406 98.421875 41.941406 C 100.835938 42.945312 103.597656 42.613281 105.710938 41.074219 C 118.324219 31.878906 126.792969 32.21875 129.164062 34.589844 C 133.636719 39.066406 127.5625 51.351562 122.679688 58.046875 C 121.140625 60.15625 120.8125 62.917969 121.8125 65.332031 C 122.8125 67.746094 125 69.46875 127.582031 69.871094 C 143.007812 72.289062 148.757812 78.519531 148.757812 81.878906 C 148.757812 88.207031 135.769531 92.601562 127.582031 93.882812 C 125 94.289062 122.8125 96.007812 121.8125 98.421875 C 120.8125 100.835938 121.140625 103.597656 122.679688 105.710938 C 131.878906 118.324219 131.539062 126.789062 129.164062 129.164062 C 124.691406 133.636719 112.402344 127.5625 105.710938 122.679688 C 103.597656 121.140625 100.835938 120.8125 98.421875 121.8125 C 96.007812 122.8125 94.289062 125 93.882812 127.582031 C 91.46875 143.007812 85.238281 148.757812 81.878906 148.757812 C 75.546875 148.757812 71.152344 135.769531 69.871094 127.582031 C 69.464844 125 67.746094 122.8125 65.332031 121.8125 Z M 482.84375 334.191406 L 29.15625 334.191406 L 18.195312 298.578125 L 493.804688 298.578125 Z M 477.410156 129.164062 C 472.941406 133.636719 460.652344 127.5625 453.957031 122.679688 C 451.84375 121.140625 449.082031 120.8125 446.667969 121.8125 C 444.253906 122.8125 442.535156 125 442.132812 127.582031 C 439.714844 143.007812 433.484375 148.757812 430.125 148.757812 C 423.792969 148.757812 419.402344 135.769531 418.117188 127.582031 C 417.714844 125 415.996094 122.8125 413.578125 121.8125 C 412.65625 121.429688 411.679688 121.242188 410.710938 121.242188 C 409.148438 121.242188 407.597656 121.730469 406.292969 122.679688 C 393.679688 131.875 385.210938 131.539062 382.839844 129.164062 C 378.363281 124.691406 384.441406 112.402344 389.320312 105.710938 C 390.859375 103.597656 391.191406 100.835938 390.1875 98.421875 C 389.1875 96.007812 387.003906 94.289062 384.421875 93.882812 C 368.992188 91.46875 363.242188 85.238281 363.242188 81.878906 C 363.242188 75.546875 376.234375 71.152344 384.421875 69.871094 C 387.003906 69.46875 389.1875 67.746094 390.1875 65.332031 C 391.191406 62.917969 390.859375 60.160156 389.320312 58.046875 C 380.125 45.429688 380.464844 36.964844 382.839844 34.589844 C 387.3125 30.121094 399.597656 36.195312 406.292969 41.074219 C 408.402344 42.613281 411.167969 42.945312 413.578125 41.941406 C 415.996094 40.941406 417.714844 38.757812 418.117188 36.175781 C 420.535156 20.746094 426.765625 14.996094 430.125 14.996094 C 436.453125 14.996094 440.847656 27.988281 442.132812 36.175781 C 442.535156 38.757812 444.253906 40.941406 446.667969 41.941406 C 449.082031 42.945312 451.84375 42.613281 453.957031 41.074219 C 466.570312 31.878906 475.039062 32.21875 477.410156 34.589844 C 481.882812 39.066406 475.804688 51.351562 470.925781 58.046875 C 469.386719 60.15625 469.058594 62.917969 470.058594 65.332031 C 471.058594 67.746094 473.246094 69.46875 475.828125 69.871094 C 491.257812 72.289062 497.003906 78.515625 497.003906 81.878906 C 497.003906 88.207031 484.015625 92.601562 475.828125 93.882812 C 473.246094 94.289062 471.058594 96.007812 470.058594 98.421875 C 469.058594 100.835938 469.386719 103.597656 470.925781 105.710938 C 480.121094 118.324219 479.785156 126.789062 477.410156 129.164062 Z M 390.296875 216.867188 C 380.898438 207.46875 378.335938 192.855469 377.652344 184.726562 C 385.78125 185.410156 400.398438 187.972656 409.796875 197.371094 C 419.195312 206.765625 421.757812 221.386719 422.441406 229.511719 C 414.3125 228.828125 399.695312 226.265625 390.296875 216.867188 Z M 482.597656 207.59375 C 481.910156 215.722656 479.347656 230.339844 469.949219 239.738281 C 460.554688 249.132812 445.9375 251.695312 437.808594 252.378906 C 438.492188 244.253906 441.054688 229.636719 450.453125 220.238281 C 459.851562 210.839844 474.46875 208.277344 482.597656 207.59375 Z M 482.597656 207.59375 " style=" stroke:none;fill-rule:nonzero;fill-opacity:1;" fill="#deb06f" /></g></svg>