<svg xmlns="http://www.w3.org/2000/svg" height="512pt" version="1.1" viewBox="-2 0 512 512.00113" width="512pt"><g id="surface1"><path d="M 0 473.375 L 0 478.457031 C 0 496.953125 15.050781 512 33.546875 512 L 473.519531 512 C 492.019531 512 507.066406 496.953125 507.066406 478.457031 L 507.066406 473.375 C 507.066406 454.875 492.019531 439.828125 473.519531 439.828125 L 397.394531 439.828125 C 400.902344 434.527344 402.949219 428.183594 402.949219 421.367188 L 402.949219 416.285156 C 402.949219 405.808594 398.117188 396.441406 390.570312 390.28125 C 398.117188 384.125 402.949219 374.757812 402.949219 364.28125 L 402.949219 359.199219 C 402.949219 340.703125 387.902344 325.652344 369.402344 325.652344 L 163.386719 325.652344 C 158.578125 325.652344 154.664062 321.742188 154.664062 316.933594 L 154.664062 238.90625 L 157.160156 238.90625 C 161.328125 238.90625 164.703125 235.53125 164.703125 231.363281 L 164.703125 183.347656 C 164.703125 179.183594 161.328125 175.804688 157.160156 175.804688 L 154.664062 175.804688 L 154.664062 113.410156 C 169.355469 128.261719 191.066406 134.308594 211.492188 128.835938 L 269.003906 113.425781 C 273.027344 112.347656 275.414062 108.210938 274.335938 104.1875 L 270.421875 89.585938 C 269.34375 85.5625 265.207031 83.175781 261.183594 84.25 C 257.160156 85.332031 254.773438 89.464844 255.851562 93.488281 L 257.808594 100.804688 L 238.3125 106.03125 L 215.796875 22.007812 L 235.296875 16.78125 L 248.054688 64.398438 C 249.132812 68.421875 253.269531 70.808594 257.292969 69.730469 C 261.316406 68.652344 263.707031 64.515625 262.628906 60.492188 L 247.917969 5.589844 C 247.398438 3.660156 246.136719 2.011719 244.402344 1.011719 C 242.667969 0.0117188 240.609375 -0.261719 238.679688 0.257812 L 181.171875 15.664062 C 160.539062 21.195312 144.636719 37.558594 139.503906 58.054688 L 54.28125 80.890625 C 50.257812 81.96875 47.871094 86.105469 48.949219 90.128906 L 49.320312 91.515625 L 34.84375 95.394531 C 29.738281 96.761719 25.46875 100.035156 22.824219 104.613281 C 20.183594 109.191406 19.480469 114.523438 20.851562 119.628906 C 22.214844 124.734375 25.492188 129.003906 30.070312 131.644531 C 33.117188 133.40625 36.503906 134.304688 39.933594 134.304688 C 41.652344 134.304688 43.382812 134.082031 45.085938 133.625 L 59.5625 129.746094 L 59.753906 130.457031 C 60.273438 132.390625 61.535156 134.039062 63.269531 135.039062 C 64.425781 135.707031 65.726562 136.050781 67.039062 136.050781 C 67.695312 136.050781 68.351562 135.964844 68.992188 135.792969 L 82.492188 132.175781 L 82.492188 175.804688 L 80.289062 175.804688 C 76.121094 175.804688 72.746094 179.183594 72.746094 183.347656 L 72.746094 231.367188 C 72.746094 235.53125 76.121094 238.910156 80.289062 238.910156 L 82.492188 238.910156 L 82.492188 334.542969 C 82.492188 353.832031 91.179688 371.125 104.835938 382.742188 L 67.449219 382.742188 C 63.28125 382.742188 59.902344 386.117188 59.902344 390.285156 C 59.902344 390.378906 59.914062 390.472656 59.917969 390.5625 C 60.066406 394.597656 63.375 397.828125 67.449219 397.828125 L 369.402344 397.828125 C 379.582031 397.828125 387.863281 406.109375 387.863281 416.289062 L 387.863281 421.371094 C 387.863281 431.546875 379.582031 439.828125 369.402344 439.828125 L 33.546875 439.828125 C 23.367188 439.828125 15.085938 431.550781 15.085938 421.371094 L 15.085938 416.289062 C 15.085938 406.109375 23.367188 397.828125 33.546875 397.828125 L 36.570312 397.828125 C 40.734375 397.828125 44.113281 394.449219 44.113281 390.285156 C 44.113281 386.117188 40.734375 382.742188 36.570312 382.742188 L 33.546875 382.742188 C 15.046875 382.742188 0 397.789062 0 416.289062 L 0 421.371094 C 0 431.847656 4.832031 441.214844 12.382812 447.371094 C 4.832031 453.527344 0 462.894531 0 473.375 Z M 473.519531 454.914062 C 483.699219 454.914062 491.980469 463.195312 491.980469 473.375 L 491.980469 478.457031 C 491.980469 488.632812 483.699219 496.914062 473.519531 496.914062 L 33.546875 496.914062 C 23.367188 496.914062 15.085938 488.632812 15.085938 478.457031 L 15.085938 473.375 C 15.085938 463.195312 23.367188 454.914062 33.546875 454.914062 Z M 37.613281 118.582031 C 36.527344 117.953125 35.746094 116.941406 35.421875 115.726562 C 35.097656 114.511719 35.261719 113.246094 35.890625 112.15625 C 36.519531 111.070312 37.535156 110.292969 38.746094 109.964844 L 53.222656 106.085938 L 55.65625 115.171875 L 41.179688 119.050781 C 39.96875 119.375 38.699219 119.210938 37.613281 118.582031 Z M 72.816406 119.148438 C 72.777344 118.90625 72.726562 118.664062 72.660156 118.425781 L 66.320312 94.769531 C 66.195312 94.292969 66.023438 93.84375 65.816406 93.417969 L 147.898438 71.425781 C 150.765625 70.65625 152.917969 68.277344 153.390625 65.34375 C 156.121094 48.445312 168.558594 34.664062 185.074219 30.238281 L 201.226562 25.914062 L 223.738281 109.933594 L 207.589844 114.261719 C 191.074219 118.6875 173.414062 112.972656 162.601562 99.703125 C 160.722656 97.398438 157.667969 96.414062 154.800781 97.183594 Z M 87.832031 223.824219 L 87.832031 190.890625 L 149.621094 190.890625 L 149.621094 223.824219 Z M 97.578125 175.804688 L 97.578125 128.132812 L 139.578125 116.878906 L 139.578125 175.804688 Z M 97.578125 334.542969 L 97.578125 238.910156 L 139.578125 238.910156 L 139.578125 316.933594 C 139.578125 330.0625 150.257812 340.742188 163.386719 340.742188 L 369.402344 340.742188 C 379.582031 340.742188 387.863281 349.023438 387.863281 359.199219 L 387.863281 364.28125 C 387.863281 374.460938 379.582031 382.742188 369.402344 382.742188 L 145.777344 382.742188 C 119.199219 382.742188 97.578125 361.117188 97.578125 334.542969 Z M 97.578125 334.542969 " style=" stroke:none;fill-rule:nonzero;fill-opacity:1;" fill="#deb06f" /></g></svg>