<svg xmlns="http://www.w3.org/2000/svg" height="511pt" version="1.1" viewBox="-67 0 511 511.99964" width="511pt">
<g id="surface1">
<path d="M 375.910156 476.179688 L 313.761719 273.066406 C 313.507812 272.222656 313.105469 271.4375 312.574219 270.734375 L 270.175781 214.546875 C 268.941406 212.914062 267.09375 211.851562 265.0625 211.609375 C 263.285156 211.398438 261.503906 211.828125 260.027344 212.804688 C 259.3125 212.195312 258.558594 211.613281 257.761719 211.070312 L 232.089844 193.566406 C 247.1875 179.421875 268.9375 155.289062 280.964844 124.683594 C 282.484375 120.820312 280.582031 116.457031 276.71875 114.9375 C 276.648438 114.910156 276.578125 114.890625 276.511719 114.867188 C 272.699219 113.492188 268.460938 115.386719 266.96875 119.183594 C 250.386719 161.375 212.089844 191.300781 207.78125 194.574219 C 207.519531 194.769531 207.371094 194.890625 207.339844 194.921875 C 205.355469 196.589844 204.371094 199.164062 204.734375 201.730469 C 204.914062 202.996094 205.007812 204.261719 205.007812 205.488281 C 205.007812 220.066406 193.144531 231.929688 178.5625 231.929688 C 173.605469 231.929688 168.769531 230.546875 164.578125 227.925781 C 162.355469 226.535156 159.566406 226.40625 157.222656 227.582031 C 153.5625 229.421875 150.09375 231.0625 146.859375 232.523438 L 134.523438 222.390625 C 138.503906 220.71875 143.097656 218.667969 148.136719 216.210938 C 151.007812 214.8125 152.679688 211.753906 152.308594 208.585938 C 152.183594 207.5 152.121094 206.484375 152.121094 205.488281 C 152.121094 190.910156 163.984375 179.046875 178.5625 179.046875 C 183.289062 179.046875 187.929688 180.3125 191.984375 182.707031 C 194.773438 184.351562 198.300781 184.03125 200.742188 181.90625 C 260.902344 129.558594 266.675781 87.683594 263.5 36.113281 C 272.484375 53.8125 276.046875 72.070312 274.105469 90.648438 C 273.683594 94.6875 276.546875 98.304688 280.539062 98.867188 C 280.625 98.878906 280.714844 98.898438 280.804688 98.90625 C 284.9375 99.34375 288.632812 96.339844 289.0625 92.210938 C 292.320312 61.042969 282.371094 30.953125 259.496094 2.78125 C 257.414062 0.214844 253.898438 -0.691406 250.832031 0.550781 C 247.769531 1.792969 245.878906 4.890625 246.167969 8.179688 L 246.328125 9.964844 C 251.363281 66.882812 254.84375 106.304688 207.324219 155.078125 C 203.195312 141.785156 197.050781 125.460938 188.21875 109.257812 C 161.132812 59.554688 121.902344 35.574219 74.773438 39.890625 C 74.769531 39.890625 74.765625 39.894531 74.761719 39.894531 C 72.410156 39.671875 69.992188 40.5625 68.339844 42.492188 C 65.640625 45.648438 66.011719 50.394531 69.167969 53.09375 C 69.722656 53.566406 124.570312 101.492188 122.34375 189.277344 C 122.28125 191.703125 123.394531 194.011719 125.332031 195.472656 L 137.109375 204.347656 C 137.105469 204.503906 137.09375 204.65625 137.089844 204.8125 C 130.648438 207.804688 125.1875 210.003906 121.25 211.488281 L 118.332031 209.089844 C 116.75 207.792969 114.707031 207.191406 112.671875 207.4375 C 110.640625 207.675781 108.792969 208.738281 107.558594 210.371094 L 65.160156 266.5625 C 64.628906 267.261719 64.226562 268.050781 63.972656 268.890625 L 34.429688 365.4375 C 33.214844 369.410156 35.449219 373.613281 39.421875 374.828125 C 43.394531 376.042969 47.59375 373.808594 48.808594 369.835938 L 77.960938 274.558594 L 114.84375 225.683594 L 126.714844 235.433594 L 139.953125 246.304688 L 105.578125 289.703125 C 105.039062 290.382812 104.621094 291.152344 104.34375 291.976562 L 39.652344 484.238281 C 38.304688 488.378906 34.964844 491.316406 31.039062 492.355469 C 28.820312 492.941406 26.414062 492.929688 24.074219 492.167969 C 17.59375 490.058594 14.035156 483.070312 16.144531 476.589844 C 16.160156 476.546875 16.171875 476.507812 16.183594 476.464844 L 39.746094 399.460938 C 40.960938 395.488281 38.726562 391.285156 34.757812 390.070312 C 30.785156 388.855469 26.582031 391.089844 25.367188 395.058594 L 1.824219 472.007812 C -2.804688 486.355469 5.078125 501.800781 19.421875 506.46875 C 22.230469 507.382812 25.078125 507.816406 27.882812 507.816406 C 39.425781 507.816406 50.1875 500.464844 53.929688 488.964844 L 105.394531 336.003906 C 108.242188 340.515625 112.597656 344.683594 119.933594 344.683594 C 126.652344 344.683594 130.589844 338.613281 134.757812 332.183594 C 135.859375 330.488281 137.617188 327.773438 139.058594 326 C 140.152344 327.46875 141.429688 329.429688 142.324219 330.8125 C 146.753906 337.628906 151.332031 344.683594 158.925781 344.683594 C 166.132812 344.683594 170.515625 337.933594 174.753906 331.410156 C 175.746094 329.882812 177.164062 327.699219 178.378906 326.113281 C 179.550781 327.660156 180.914062 329.761719 181.871094 331.234375 C 186.167969 337.847656 190.605469 344.683594 197.925781 344.683594 C 205.359375 344.683594 209.859375 337.757812 214.207031 331.058594 C 215.132812 329.632812 216.453125 327.605469 217.585938 326.09375 C 218.859375 327.726562 220.363281 330.050781 221.410156 331.65625 C 225.566406 338.0625 229.867188 344.683594 236.914062 344.683594 C 244.164062 344.683594 248.5625 338.335938 252.445312 332.734375 C 254.125 330.3125 258.058594 324.632812 259.730469 324.632812 C 264.023438 324.632812 269.820312 333.613281 272.183594 339.820312 C 272.222656 339.914062 272.273438 340 272.3125 340.09375 L 323.785156 493.066406 C 326.050781 500.023438 330.886719 505.6875 337.410156 509.003906 C 341.320312 510.992188 345.550781 512 349.808594 512 C 352.660156 512 355.527344 511.550781 358.316406 510.640625 C 365.273438 508.378906 370.933594 503.539062 374.253906 497.015625 C 377.558594 490.515625 378.148438 483.117188 375.910156 476.179688 Z M 360.847656 490.195312 C 359.351562 493.136719 356.796875 495.320312 353.660156 496.339844 C 350.519531 497.363281 347.171875 497.101562 344.230469 495.601562 C 341.285156 494.105469 339.105469 491.550781 338.058594 488.339844 L 273.390625 296.148438 C 273.113281 295.328125 272.695312 294.558594 272.15625 293.878906 L 237.78125 250.476562 L 262.890625 229.855469 L 299.773438 278.734375 L 361.546875 480.636719 C 361.5625 480.679688 361.574219 480.722656 361.589844 480.761719 C 362.609375 483.902344 362.347656 487.253906 360.847656 490.195312 Z M 212.597656 229.15625 C 217.285156 222.4375 220.042969 214.28125 220.042969 205.488281 C 220.042969 205.023438 220.035156 204.554688 220.015625 204.085938 C 220.132812 203.992188 220.265625 203.882812 220.386719 203.785156 L 248.011719 222.621094 L 226.914062 239.945312 L 224.828125 241.660156 L 213.113281 242.792969 L 205.460938 237.027344 C 208.160156 234.71875 210.5625 232.074219 212.597656 229.15625 Z M 115.792969 59.617188 C 139.121094 68.113281 158.894531 87.007812 174.84375 116.140625 C 184.839844 134.40625 191.253906 153.199219 195.074219 166.828125 C 194.921875 166.96875 194.777344 167.105469 194.621094 167.242188 C 189.558594 165.117188 184.09375 164.007812 178.5625 164.007812 C 171.664062 164.007812 165.15625 165.707031 159.429688 168.699219 C 151.246094 172.972656 144.664062 179.890625 140.816406 188.316406 L 137.433594 185.765625 C 137.792969 138.179688 122.441406 102.066406 109.296875 79.941406 C 102.972656 69.300781 96.597656 60.835938 91.328125 54.601562 C 99.871094 55.117188 108.03125 56.789062 115.792969 59.617188 Z M 259.726562 309.59375 C 250.179688 309.59375 244.34375 318.015625 240.082031 324.167969 C 239.246094 325.375 238.15625 326.945312 237.199219 328.164062 C 236.125 326.707031 234.890625 324.8125 234.019531 323.46875 C 229.589844 316.648438 225.011719 309.59375 217.417969 309.59375 C 210.214844 309.59375 205.832031 316.34375 201.59375 322.867188 C 200.601562 324.394531 199.183594 326.578125 197.972656 328.164062 C 196.800781 326.617188 195.433594 324.515625 194.480469 323.042969 C 190.183594 316.429688 185.746094 309.59375 178.425781 309.59375 C 170.992188 309.59375 166.492188 316.519531 162.140625 323.21875 C 161.214844 324.644531 159.894531 326.671875 158.761719 328.1875 C 157.484375 326.550781 155.976562 324.226562 154.933594 322.617188 C 150.773438 316.214844 146.472656 309.59375 139.425781 309.59375 C 131.480469 309.59375 126.515625 317.246094 122.136719 324 C 121.152344 325.519531 119.824219 327.570312 118.769531 328.945312 C 117.933594 327.984375 116.984375 326.03125 115.707031 323.105469 C 114.695312 320.796875 113.597656 318.316406 112.09375 316.085938 L 118.175781 298.011719 L 156.324219 249.851562 C 157.679688 248.136719 158.164062 246.011719 157.847656 244.003906 C 158.6875 243.605469 159.539062 243.203125 160.40625 242.78125 C 166.039062 245.53125 172.238281 246.964844 178.5625 246.964844 C 182.929688 246.964844 187.136719 246.285156 191.09375 245.027344 L 206.402344 256.566406 C 207.90625 257.695312 209.777344 258.226562 211.652344 258.042969 L 223.667969 256.878906 L 259.554688 302.1875 L 262.105469 309.765625 C 261.328125 309.664062 260.539062 309.59375 259.726562 309.59375 Z M 259.726562 309.59375 " style=" stroke:none;fill-rule:nonzero;fill:rgb(0%,0%,0%);fill-opacity:1;" />
<path d="M 178.375 186.640625 C 168.023438 186.640625 159.601562 195.0625 159.601562 205.414062 C 159.601562 215.765625 168.023438 224.1875 178.375 224.1875 C 188.726562 224.1875 197.148438 215.765625 197.148438 205.414062 C 197.148438 195.0625 188.726562 186.640625 178.375 186.640625 Z M 174.640625 205.410156 C 174.640625 203.351562 176.316406 201.675781 178.375 201.675781 C 180.4375 201.675781 182.113281 203.351562 182.113281 205.410156 C 182.113281 207.472656 180.4375 209.148438 178.375 209.148438 C 176.316406 209.148438 174.640625 207.472656 174.640625 205.410156 Z M 174.640625 205.410156 " style=" stroke:none;fill-rule:nonzero;fill:rgb(0%,0%,0%);fill-opacity:1;" />
</g>
</svg>