<svg xmlns="http://www.w3.org/2000/svg" height="512pt" version="1.1" viewBox="-116 0 512 512.00001" width="512pt">
<g id="surface1">
<path d="M 28.070312 270.28125 L 50.214844 270.28125 C 73.289062 270.28125 94.789062 282.695312 106.324219 302.675781 L 108.953125 307.230469 L 105.765625 307.230469 C 101.628906 307.230469 98.273438 310.585938 98.273438 314.722656 L 98.273438 470.28125 C 98.273438 493.285156 116.988281 512 139.988281 512 C 162.992188 512 181.707031 493.285156 181.707031 470.28125 L 181.707031 410.066406 C 181.707031 405.929688 178.351562 402.574219 174.210938 402.574219 C 170.074219 402.574219 166.71875 405.929688 166.71875 410.066406 L 166.71875 470.28125 C 166.71875 482.460938 158.527344 492.757812 147.367188 495.96875 C 145.019531 496.644531 142.546875 497.011719 139.988281 497.011719 C 125.25 497.011719 113.261719 485.023438 113.261719 470.28125 L 113.261719 466.648438 L 136.546875 466.648438 C 140.683594 466.648438 144.039062 463.292969 144.039062 459.152344 C 144.039062 455.015625 140.683594 451.660156 136.546875 451.660156 L 113.261719 451.660156 L 113.261719 429.8125 L 136.546875 429.8125 C 140.683594 429.8125 144.039062 426.457031 144.039062 422.316406 C 144.039062 418.179688 140.683594 414.824219 136.546875 414.824219 L 113.261719 414.824219 L 113.261719 392.976562 L 136.546875 392.976562 C 140.683594 392.976562 144.039062 389.621094 144.039062 385.484375 C 144.039062 381.34375 140.683594 377.988281 136.546875 377.988281 L 113.261719 377.988281 L 113.261719 322.214844 L 166.71875 322.214844 L 166.71875 379.035156 C 166.71875 383.175781 170.074219 386.53125 174.210938 386.53125 C 178.351562 386.53125 181.707031 383.175781 181.707031 379.035156 L 181.707031 314.722656 C 181.707031 310.585938 178.351562 307.230469 174.210938 307.230469 L 171.023438 307.230469 L 173.652344 302.675781 C 185.191406 282.695312 206.691406 270.28125 229.765625 270.28125 L 251.910156 270.28125 C 261.660156 270.28125 270.554688 265.339844 275.710938 257.066406 C 280.867188 248.792969 281.382812 238.628906 277.085938 229.878906 L 221.84375 117.300781 C 220.015625 113.585938 215.527344 112.050781 211.8125 113.875 C 208.097656 115.699219 206.566406 120.1875 208.386719 123.902344 L 263.632812 236.480469 C 265.660156 240.617188 265.429688 245.230469 262.992188 249.140625 C 260.554688 253.050781 256.515625 255.292969 251.910156 255.292969 L 229.765625 255.292969 C 214.238281 255.292969 199.296875 259.867188 186.617188 268.019531 L 186.617188 251.933594 C 186.617188 226.222656 165.699219 205.304688 139.988281 205.304688 C 114.277344 205.304688 93.363281 226.222656 93.363281 251.933594 L 93.363281 268.019531 C 80.679688 259.863281 65.738281 255.292969 50.214844 255.292969 L 28.066406 255.292969 C 23.460938 255.292969 19.421875 253.050781 16.984375 249.140625 C 14.550781 245.230469 14.316406 240.617188 16.34375 236.480469 L 119.226562 26.839844 C 123.605469 19.414062 131.351562 14.988281 139.988281 14.988281 C 142.785156 14.988281 145.480469 15.457031 148.003906 16.335938 C 153.28125 18.171875 157.789062 21.816406 160.753906 26.839844 L 195.542969 97.730469 C 197.363281 101.445312 201.855469 102.976562 205.570312 101.15625 C 209.285156 99.332031 210.820312 94.839844 208.996094 91.125 L 174.089844 19.996094 C 174.015625 19.84375 173.9375 19.695312 173.851562 19.550781 C 166.785156 7.308594 154.125 0 139.988281 0 C 125.851562 0 113.195312 7.308594 106.125 19.550781 C 106.042969 19.695312 105.960938 19.84375 105.886719 19.996094 L 2.890625 229.878906 C -1.402344 238.628906 -0.890625 248.792969 4.265625 257.066406 C 9.421875 265.339844 18.320312 270.28125 28.070312 270.28125 Z M 171.628906 251.933594 L 171.628906 280.460938 C 167.464844 284.882812 163.777344 289.808594 160.675781 295.183594 L 153.71875 307.230469 L 126.261719 307.230469 L 119.304688 295.183594 C 116.203125 289.808594 112.515625 284.882812 108.351562 280.460938 L 108.351562 251.933594 C 108.351562 234.488281 122.546875 220.296875 139.992188 220.296875 C 157.4375 220.292969 171.628906 234.488281 171.628906 251.933594 Z M 171.628906 251.933594 " style=" stroke:none;fill-rule:nonzero;fill:rgb(0%,0%,0%);fill-opacity:1;" />
</g>
</svg>